<svg width="9" height="9" viewBox="0 0 9 9" fill="none" xmlns="http://www.w3.org/2000/svg">
<path d="M0.92625 8.184C0.776917 8.248 0.63825 8.264 0.51025 8.232C0.392917 8.2 0.296917 8.136 0.22225 8.04C0.147583 7.93333 0.104917 7.82133 0.09425 7.704C0.0835834 7.576 0.11025 7.45867 0.17425 7.352C0.23825 7.23467 0.339583 7.144 0.47825 7.08L7.56625 4.008V4.808L0.47825 1.736C0.339583 1.672 0.23825 1.58667 0.17425 1.48C0.11025 1.36267 0.0835834 1.24 0.09425 1.112C0.104917 0.984 0.147583 0.872 0.22225 0.776C0.296917 0.68 0.392917 0.616 0.51025 0.584C0.63825 0.541333 0.776917 0.551999 0.92625 0.615999L7.55025 3.544C7.96625 3.71467 8.17425 3.99733 8.17425 4.392C8.17425 4.59467 8.12092 4.77067 8.01425 4.92C7.90758 5.06933 7.75292 5.18667 7.55025 5.272L0.92625 8.184Z" fill="#113654"/>
</svg>
