<svg width="15" height="16" viewBox="0 0 15 16" fill="none" xmlns="http://www.w3.org/2000/svg">
<path d="M2.34375 11.9375H0.46875C0.34443 11.9375 0.225201 11.9968 0.137294 12.1023C0.049386 12.2077 0 12.3508 0 12.5L0 14.75C0 14.8992 0.049386 15.0423 0.137294 15.1477C0.225201 15.2532 0.34443 15.3125 0.46875 15.3125H2.34375C2.46807 15.3125 2.5873 15.2532 2.67521 15.1477C2.76311 15.0423 2.8125 14.8992 2.8125 14.75V12.5C2.8125 12.3508 2.76311 12.2077 2.67521 12.1023C2.5873 11.9968 2.46807 11.9375 2.34375 11.9375ZM2.34375 0.6875H0.46875C0.34443 0.6875 0.225201 0.746763 0.137294 0.852252C0.049386 0.957742 0 1.10082 0 1.25L0 3.5C0 3.64918 0.049386 3.79226 0.137294 3.89775C0.225201 4.00324 0.34443 4.0625 0.46875 4.0625H2.34375C2.46807 4.0625 2.5873 4.00324 2.67521 3.89775C2.76311 3.79226 2.8125 3.64918 2.8125 3.5V1.25C2.8125 1.10082 2.76311 0.957742 2.67521 0.852252C2.5873 0.746763 2.46807 0.6875 2.34375 0.6875ZM2.34375 6.3125H0.46875C0.34443 6.3125 0.225201 6.37176 0.137294 6.47725C0.049386 6.58274 0 6.72582 0 6.875L0 9.125C0 9.27418 0.049386 9.41726 0.137294 9.52275C0.225201 9.62824 0.34443 9.6875 0.46875 9.6875H2.34375C2.46807 9.6875 2.5873 9.62824 2.67521 9.52275C2.76311 9.41726 2.8125 9.27418 2.8125 9.125V6.875C2.8125 6.72582 2.76311 6.58274 2.67521 6.47725C2.5873 6.37176 2.46807 6.3125 2.34375 6.3125ZM14.5313 12.5H5.15625C5.03193 12.5 4.9127 12.5593 4.82479 12.6648C4.73689 12.7702 4.6875 12.9133 4.6875 13.0625V14.1875C4.6875 14.3367 4.73689 14.4798 4.82479 14.5852C4.9127 14.6907 5.03193 14.75 5.15625 14.75H14.5313C14.6556 14.75 14.7748 14.6907 14.8627 14.5852C14.9506 14.4798 15 14.3367 15 14.1875V13.0625C15 12.9133 14.9506 12.7702 14.8627 12.6648C14.7748 12.5593 14.6556 12.5 14.5313 12.5ZM14.5313 1.25H5.15625C5.03193 1.25 4.9127 1.30926 4.82479 1.41475C4.73689 1.52024 4.6875 1.66332 4.6875 1.8125V2.9375C4.6875 3.08668 4.73689 3.22976 4.82479 3.33525C4.9127 3.44074 5.03193 3.5 5.15625 3.5H14.5313C14.6556 3.5 14.7748 3.44074 14.8627 3.33525C14.9506 3.22976 15 3.08668 15 2.9375V1.8125C15 1.66332 14.9506 1.52024 14.8627 1.41475C14.7748 1.30926 14.6556 1.25 14.5313 1.25ZM14.5313 6.875H5.15625C5.03193 6.875 4.9127 6.93426 4.82479 7.03975C4.73689 7.14524 4.6875 7.28832 4.6875 7.4375V8.5625C4.6875 8.71168 4.73689 8.85476 4.82479 8.96025C4.9127 9.06574 5.03193 9.125 5.15625 9.125H14.5313C14.6556 9.125 14.7748 9.06574 14.8627 8.96025C14.9506 8.85476 15 8.71168 15 8.5625V7.4375C15 7.28832 14.9506 7.14524 14.8627 7.03975C14.7748 6.93426 14.6556 6.875 14.5313 6.875Z" fill="#113654"/>
</svg>
